<?xml version="1.0" encoding="UTF-8" standalone="no"?>
<svg
   viewBox="0 0 511.10002 3140.0001"
   version="1.1"
   id="svg4"
   sodipodi:docname="film.svg"
   width="730.14288"
   height="4485.7144"
   inkscape:version="1.1.2 (b8e25be833, 2022-02-05)"
   inkscape:export-filename="C:\Users\SeaSkyThe\Documents\ML-WebApp\ML-models-web-app\src\static\icons\film.png"
   inkscape:export-xdpi="96"
   inkscape:export-ydpi="96"
   xmlns:inkscape="http://www.inkscape.org/namespaces/inkscape"
   xmlns:sodipodi="http://sodipodi.sourceforge.net/DTD/sodipodi-0.dtd"
   xmlns="http://www.w3.org/2000/svg"
   xmlns:svg="http://www.w3.org/2000/svg">
  <defs
     id="defs8" />
  <sodipodi:namedview
     id="namedview6"
     pagecolor="#ffffff"
     bordercolor="#999999"
     borderopacity="1"
     inkscape:pageshadow="0"
     inkscape:pageopacity="0"
     inkscape:pagecheckerboard="0"
     showgrid="false"
     inkscape:zoom="1"
     inkscape:cx="373"
     inkscape:cy="3562"
     inkscape:window-width="1835"
     inkscape:window-height="1057"
     inkscape:window-x="-8"
     inkscape:window-y="-8"
     inkscape:window-maximized="1"
     inkscape:current-layer="svg4"
     height="1024px"
     fit-margin-top="0"
     fit-margin-left="0"
     fit-margin-right="0"
     fit-margin-bottom="0" />
  <!--! Font Awesome Free 6.1.1 by @fontawesome - https://fontawesome.com License - https://fontawesome.com/license/free (Icons: CC BY 4.0, Fonts: SIL OFL 1.1, Code: MIT License) Copyright 2022 Fonticons, Inc. -->
  <path
     d="M 463.10011,2692 H 47.1001 C 21.4901,2692 0,2713.49 0,2740 v 352 c 0,26.51 21.49,48 47.1,48 h 416.00001 c 26.51,0 48,-21.49 48,-48 v -352 c 10e-5,-26.51 -20.5999,-48 -47.9999,-48 z m -352,376 c 0,4.418 -3.582,8 -8,8 H 55.1001 c -4.418,0 -8,-3.582 -8,-8 v -48 c 0,-4.418 3.582,-8 8,-8 h 47.10001 c 4.418,0 8,3.582 8,8 z m 0,-128 c 0,4.418 -3.582,8 -8,8 H 55.1001 c -4.418,0 -8,-3.582 -8,-8 v -48 c 0,-4.418 3.582,-8 8,-8 h 47.10001 c 4.418,0 8,3.582 8,8 v 48 z m 0,-128 c 0,4.418 -3.582,8 -8,8 H 55.1001 c -4.418,0 -8,-3.582 -8,-8 v -48 c 0,-4.418 3.582,-8 8,-8 h 47.10001 c 4.418,0 8,3.582 8,8 z m 240,248 c 0,8.836 -7.164,16 -16,16 h -160 c -8.836,0 -16,-7.164 -16,-16 v -96 c 0,-8.838 7.164,-16 16,-16 h 160 c 8.836,0 16,7.162 16,16 z m 0,-192 c 0,8.836 -7.164,16 -16,16 h -160 c -8.836,0 -16,-7.164 -16,-16 v -96 c 0,-8.838 7.164,-16 16,-16 h 160 c 8.836,0 16,7.162 16,16 z m 112,200 c 0,4.418 -3.582,8 -8,8 h -47.1 c -4.418,0 -7.1,-3.582 -7.1,-8 v -48 c 0,-4.418 3.582,-8 8,-8 h 47.1 c 4.418,0 8,3.582 8,8 v 48 z m 0,-128 c 0,4.418 -3.582,8 -8,8 h -47.1 c -4.418,0 -8,-3.582 -8,-8 v -48 c 0,-4.418 3.582,-8 8,-8 h 47.1 c 4.418,0 8,3.582 8,8 z m 0,-128 c 0,4.418 -3.582,8 -8,8 h -47.1 c -4.418,0 -8,-3.582 -8,-8 v -48 c 0,-4.418 3.582,-8 7.1,-8 h 47.1 c 4.418,0 8,3.582 8,8 v 48 z"
     id="path2" />
  <path
     d="M 463.10011,2306 H 47.1001 C 21.4901,2306 0,2327.49 0,2354 v 352 c 0,26.51 21.49,48 47.1,48 h 416.00001 c 26.51,0 48,-21.49 48,-48 v -352 c 10e-5,-26.51 -20.5999,-48 -47.9999,-48 z m -352,376 c 0,4.418 -3.582,8 -8,8 H 55.1001 c -4.418,0 -8,-3.582 -8,-8 v -47.9999 c 0,-4.418 3.582,-8 8,-8 h 47.10001 c 4.418,0 8,3.582 8,8 z m 0,-128 c 0,4.418 -3.582,8 -8,8 H 55.1001 c -4.418,0 -8,-3.582 -8,-8 v -48 c 0,-4.418 3.582,-8 8,-8 h 47.10001 c 4.418,0 8,3.582 8,8 v 48 z m 0,-128 c 0,4.418 -3.582,8 -8,8 H 55.1001 c -4.418,0 -8,-3.582 -8,-8 v -48 c 0,-4.418 3.582,-8 8,-8 h 47.10001 c 4.418,0 8,3.582 8,8 z m 240,248 c 0,8.836 -7.164,16 -16,16 h -160 c -8.836,0 -16,-7.164 -16,-16 v -96 c 0,-8.838 7.164,-16 16,-16 h 160 c 8.836,0 16,7.162 16,16 z m 0,-192 c 0,8.836 -7.164,16 -16,16 h -160 c -8.836,0 -16,-7.164 -16,-16 v -96 c 0,-8.838 7.164,-16 16,-16 h 160 c 8.836,0 16,7.162 16,16 z m 112,200 c 0,4.418 -3.582,8 -8,8 h -47.1 c -4.418,0 -7.1,-3.582 -7.1,-8 v -47.9999 c 0,-4.418 3.582,-8 8,-8 h 47.1 c 4.418,0 8,3.582 8,8 V 2682 Z m 0,-128 c 0,4.418 -3.582,8 -8,8 h -47.1 c -4.418,0 -8,-3.582 -8,-8 v -48 c 0,-4.418 3.582,-8 8,-8 h 47.1 c 4.418,0 8,3.582 8,8 z m 0,-128 c 0,4.418 -3.582,8 -8,8 h -47.1 c -4.418,0 -8,-3.582 -8,-8 v -48 c 0,-4.418 3.582,-8 7.1,-8 h 47.1 c 4.418,0 8,3.582 8,8 v 48 z"
     id="path2-5" />
  <path
     d="M 463.10011,1918 H 47.1001 C 21.4901,1918 0,1939.49 0,1966 v 352 c 0,26.51 21.49,48 47.1,48 h 416.00001 c 26.51,0 48,-21.49 48,-48 v -352 c 10e-5,-26.51 -20.5999,-48 -47.9999,-48 z m -352,376 c 0,4.418 -3.582,8 -8,8 H 55.1001 c -4.418,0 -8,-3.582 -8,-8 v -47.9999 c 0,-4.418 3.582,-8 8,-8 h 47.10001 c 4.418,0 8,3.582 8,8 z m 0,-128 c 0,4.418 -3.582,8 -8,8 H 55.1001 c -4.418,0 -8,-3.582 -8,-8 v -48 c 0,-4.418 3.582,-8 8,-8 h 47.10001 c 4.418,0 8,3.582 8,8 v 48 z m 0,-128 c 0,4.418 -3.582,8 -8,8 H 55.1001 c -4.418,0 -8,-3.582 -8,-8 v -48 c 0,-4.418 3.582,-8 8,-8 h 47.10001 c 4.418,0 8,3.582 8,8 z m 240,248 c 0,8.836 -7.164,16 -16,16 h -160 c -8.836,0 -16,-7.164 -16,-16 v -96 c 0,-8.838 7.164,-16 16,-16 h 160 c 8.836,0 16,7.162 16,16 z m 0,-192 c 0,8.836 -7.164,16 -16,16 h -160 c -8.836,0 -16,-7.164 -16,-16 v -96 c 0,-8.838 7.164,-16 16,-16 h 160 c 8.836,0 16,7.162 16,16 z m 112,200 c 0,4.418 -3.582,8 -8,8 h -47.1 c -4.418,0 -7.1,-3.582 -7.1,-8 v -47.9999 c 0,-4.418 3.582,-8 8,-8 h 47.1 c 4.418,0 8,3.582 8,8 V 2294 Z m 0,-128 c 0,4.418 -3.582,8 -8,8 h -47.1 c -4.418,0 -8,-3.582 -8,-8 v -48 c 0,-4.418 3.582,-8 8,-8 h 47.1 c 4.418,0 8,3.582 8,8 z m 0,-128 c 0,4.418 -3.582,8 -8,8 h -47.1 c -4.418,0 -8,-3.582 -8,-8 v -48 c 0,-4.418 3.582,-8 7.1,-8 h 47.1 c 4.418,0 8,3.582 8,8 v 48 z"
     id="path2-5-9" />
  <path
     d="M 463.10011,1534 H 47.1001 C 21.4901,1534 0,1555.49 0,1582 v 352 c 0,26.51 21.49,48 47.1,48 h 416.00001 c 26.51,0 48,-21.49 48,-48 v -352 c 10e-5,-26.51 -20.5999,-48 -47.9999,-48 z m -352,376 c 0,4.418 -3.582,8 -8,8 H 55.1001 c -4.418,0 -8,-3.582 -8,-8 v -47.9999 c 0,-4.418 3.582,-8 8,-8 h 47.10001 c 4.418,0 8,3.582 8,8 z m 0,-128 c 0,4.418 -3.582,8 -8,8 H 55.1001 c -4.418,0 -8,-3.582 -8,-8 v -48 c 0,-4.418 3.582,-8 8,-8 h 47.10001 c 4.418,0 8,3.582 8,8 v 48 z m 0,-128 c 0,4.418 -3.582,8 -8,8 H 55.1001 c -4.418,0 -8,-3.582 -8,-8 v -48 c 0,-4.418 3.582,-8 8,-8 h 47.10001 c 4.418,0 8,3.582 8,8 z m 240,248 c 0,8.836 -7.164,16 -16,16 h -160 c -8.836,0 -16,-7.164 -16,-16 v -96 c 0,-8.838 7.164,-16 16,-16 h 160 c 8.836,0 16,7.162 16,16 z m 0,-192 c 0,8.836 -7.164,16 -16,16 h -160 c -8.836,0 -16,-7.164 -16,-16 v -96 c 0,-8.838 7.164,-16 16,-16 h 160 c 8.836,0 16,7.162 16,16 z m 112,200 c 0,4.418 -3.582,8 -8,8 h -47.1 c -4.418,0 -7.1,-3.582 -7.1,-8 v -47.9999 c 0,-4.418 3.582,-8 8,-8 h 47.1 c 4.418,0 8,3.582 8,8 V 1910 Z m 0,-128 c 0,4.418 -3.582,8 -8,8 h -47.1 c -4.418,0 -8,-3.582 -8,-8 v -48 c 0,-4.418 3.582,-8 8,-8 h 47.1 c 4.418,0 8,3.582 8,8 z m 0,-128 c 0,4.418 -3.582,8 -8,8 h -47.1 c -4.418,0 -8,-3.582 -8,-8 v -48 c 0,-4.418 3.582,-8 7.1,-8 h 47.1 c 4.418,0 8,3.582 8,8 v 48 z"
     id="path2-5-8" />
  <path
     style="fill:#000000;stroke-width:0.5"
     d=""
     id="path858" />
  <path
     style="fill:#000000;stroke-width:0.5"
     d=""
     id="path897" />
  <path
     d="M 463.10011,2692 H 47.1001 C 21.4901,2692 0,2713.49 0,2740 v 352 c 0,26.51 21.49,48 47.1,48 h 416.00001 c 26.51,0 48,-21.49 48,-48 v -352 c 10e-5,-26.51 -20.5999,-48 -47.9999,-48 z m -352,376 c 0,4.418 -3.582,8 -8,8 H 55.1001 c -4.418,0 -8,-3.582 -8,-8 v -48 c 0,-4.418 3.582,-8 8,-8 h 47.10001 c 4.418,0 8,3.582 8,8 z m 0,-128 c 0,4.418 -3.582,8 -8,8 H 55.1001 c -4.418,0 -8,-3.582 -8,-8 v -48 c 0,-4.418 3.582,-8 8,-8 h 47.10001 c 4.418,0 8,3.582 8,8 v 48 z m 0,-128 c 0,4.418 -3.582,8 -8,8 H 55.1001 c -4.418,0 -8,-3.582 -8,-8 v -48 c 0,-4.418 3.582,-8 8,-8 h 47.10001 c 4.418,0 8,3.582 8,8 z m 240,248 c 0,8.836 -7.164,16 -16,16 h -160 c -8.836,0 -16,-7.164 -16,-16 v -96 c 0,-8.838 7.164,-16 16,-16 h 160 c 8.836,0 16,7.162 16,16 z m 0,-192 c 0,8.836 -7.164,16 -16,16 h -160 c -8.836,0 -16,-7.164 -16,-16 v -96 c 0,-8.838 7.164,-16 16,-16 h 160 c 8.836,0 16,7.162 16,16 z m 112,200 c 0,4.418 -3.582,8 -8,8 h -47.1 c -4.418,0 -7.1,-3.582 -7.1,-8 v -48 c 0,-4.418 3.582,-8 8,-8 h 47.1 c 4.418,0 8,3.582 8,8 v 48 z m 0,-128 c 0,4.418 -3.582,8 -8,8 h -47.1 c -4.418,0 -8,-3.582 -8,-8 v -48 c 0,-4.418 3.582,-8 8,-8 h 47.1 c 4.418,0 8,3.582 8,8 z m 0,-128 c 0,4.418 -3.582,8 -8,8 h -47.1 c -4.418,0 -8,-3.582 -8,-8 v -48 c 0,-4.418 3.582,-8 7.1,-8 h 47.1 c 4.418,0 8,3.582 8,8 v 48 z"
     id="path11" />
  <path
     d="M 463.10011,2306 H 47.1001 C 21.4901,2306 0,2327.49 0,2354 v 352 c 0,26.51 21.49,48 47.1,48 h 416.00001 c 26.51,0 48,-21.49 48,-48 v -352 c 10e-5,-26.51 -20.5999,-48 -47.9999,-48 z m -352,376 c 0,4.418 -3.582,8 -8,8 H 55.1001 c -4.418,0 -8,-3.582 -8,-8 v -47.9999 c 0,-4.418 3.582,-8 8,-8 h 47.10001 c 4.418,0 8,3.582 8,8 z m 0,-128 c 0,4.418 -3.582,8 -8,8 H 55.1001 c -4.418,0 -8,-3.582 -8,-8 v -48 c 0,-4.418 3.582,-8 8,-8 h 47.10001 c 4.418,0 8,3.582 8,8 v 48 z m 0,-128 c 0,4.418 -3.582,8 -8,8 H 55.1001 c -4.418,0 -8,-3.582 -8,-8 v -48 c 0,-4.418 3.582,-8 8,-8 h 47.10001 c 4.418,0 8,3.582 8,8 z m 240,248 c 0,8.836 -7.164,16 -16,16 h -160 c -8.836,0 -16,-7.164 -16,-16 v -96 c 0,-8.838 7.164,-16 16,-16 h 160 c 8.836,0 16,7.162 16,16 z m 0,-192 c 0,8.836 -7.164,16 -16,16 h -160 c -8.836,0 -16,-7.164 -16,-16 v -96 c 0,-8.838 7.164,-16 16,-16 h 160 c 8.836,0 16,7.162 16,16 z m 112,200 c 0,4.418 -3.582,8 -8,8 h -47.1 c -4.418,0 -7.1,-3.582 -7.1,-8 v -47.9999 c 0,-4.418 3.582,-8 8,-8 h 47.1 c 4.418,0 8,3.582 8,8 V 2682 Z m 0,-128 c 0,4.418 -3.582,8 -8,8 h -47.1 c -4.418,0 -8,-3.582 -8,-8 v -48 c 0,-4.418 3.582,-8 8,-8 h 47.1 c 4.418,0 8,3.582 8,8 z m 0,-128 c 0,4.418 -3.582,8 -8,8 h -47.1 c -4.418,0 -8,-3.582 -8,-8 v -48 c 0,-4.418 3.582,-8 7.1,-8 h 47.1 c 4.418,0 8,3.582 8,8 v 48 z"
     id="path13" />
  <path
     d="M 463.10011,1918 H 47.1001 C 21.4901,1918 0,1939.49 0,1966 v 352 c 0,26.51 21.49,48 47.1,48 h 416.00001 c 26.51,0 48,-21.49 48,-48 v -352 c 10e-5,-26.51 -20.5999,-48 -47.9999,-48 z m -352,376 c 0,4.418 -3.582,8 -8,8 H 55.1001 c -4.418,0 -8,-3.582 -8,-8 v -47.9999 c 0,-4.418 3.582,-8 8,-8 h 47.10001 c 4.418,0 8,3.582 8,8 z m 0,-128 c 0,4.418 -3.582,8 -8,8 H 55.1001 c -4.418,0 -8,-3.582 -8,-8 v -48 c 0,-4.418 3.582,-8 8,-8 h 47.10001 c 4.418,0 8,3.582 8,8 v 48 z m 0,-128 c 0,4.418 -3.582,8 -8,8 H 55.1001 c -4.418,0 -8,-3.582 -8,-8 v -48 c 0,-4.418 3.582,-8 8,-8 h 47.10001 c 4.418,0 8,3.582 8,8 z m 240,248 c 0,8.836 -7.164,16 -16,16 h -160 c -8.836,0 -16,-7.164 -16,-16 v -96 c 0,-8.838 7.164,-16 16,-16 h 160 c 8.836,0 16,7.162 16,16 z m 0,-192 c 0,8.836 -7.164,16 -16,16 h -160 c -8.836,0 -16,-7.164 -16,-16 v -96 c 0,-8.838 7.164,-16 16,-16 h 160 c 8.836,0 16,7.162 16,16 z m 112,200 c 0,4.418 -3.582,8 -8,8 h -47.1 c -4.418,0 -7.1,-3.582 -7.1,-8 v -47.9999 c 0,-4.418 3.582,-8 8,-8 h 47.1 c 4.418,0 8,3.582 8,8 V 2294 Z m 0,-128 c 0,4.418 -3.582,8 -8,8 h -47.1 c -4.418,0 -8,-3.582 -8,-8 v -48 c 0,-4.418 3.582,-8 8,-8 h 47.1 c 4.418,0 8,3.582 8,8 z m 0,-128 c 0,4.418 -3.582,8 -8,8 h -47.1 c -4.418,0 -8,-3.582 -8,-8 v -48 c 0,-4.418 3.582,-8 7.1,-8 h 47.1 c 4.418,0 8,3.582 8,8 v 48 z"
     id="path15"
     style="fill:#000000;fill-opacity:1" />
  <path
     d="M 463.10011,1534 H 47.1001 C 21.4901,1534 0,1555.49 0,1582 v 352 c 0,26.51 21.49,48 47.1,48 h 416.00001 c 26.51,0 48,-21.49 48,-48 v -352 c 10e-5,-26.51 -20.5999,-48 -47.9999,-48 z m -352,376 c 0,4.418 -3.582,8 -8,8 H 55.1001 c -4.418,0 -8,-3.582 -8,-8 v -47.9999 c 0,-4.418 3.582,-8 8,-8 h 47.10001 c 4.418,0 8,3.582 8,8 z m 0,-128 c 0,4.418 -3.582,8 -8,8 H 55.1001 c -4.418,0 -8,-3.582 -8,-8 v -48 c 0,-4.418 3.582,-8 8,-8 h 47.10001 c 4.418,0 8,3.582 8,8 v 48 z m 0,-128 c 0,4.418 -3.582,8 -8,8 H 55.1001 c -4.418,0 -8,-3.582 -8,-8 v -48 c 0,-4.418 3.582,-8 8,-8 h 47.10001 c 4.418,0 8,3.582 8,8 z m 240,248 c 0,8.836 -7.164,16 -16,16 h -160 c -8.836,0 -16,-7.164 -16,-16 v -96 c 0,-8.838 7.164,-16 16,-16 h 160 c 8.836,0 16,7.162 16,16 z m 0,-192 c 0,8.836 -7.164,16 -16,16 h -160 c -8.836,0 -16,-7.164 -16,-16 v -96 c 0,-8.838 7.164,-16 16,-16 h 160 c 8.836,0 16,7.162 16,16 z m 112,200 c 0,4.418 -3.582,8 -8,8 h -47.1 c -4.418,0 -7.1,-3.582 -7.1,-8 v -47.9999 c 0,-4.418 3.582,-8 8,-8 h 47.1 c 4.418,0 8,3.582 8,8 V 1910 Z m 0,-128 c 0,4.418 -3.582,8 -8,8 h -47.1 c -4.418,0 -8,-3.582 -8,-8 v -48 c 0,-4.418 3.582,-8 8,-8 h 47.1 c 4.418,0 8,3.582 8,8 z m 0,-128 c 0,4.418 -3.582,8 -8,8 h -47.1 c -4.418,0 -8,-3.582 -8,-8 v -48 c 0,-4.418 3.582,-8 7.1,-8 h 47.1 c 4.418,0 8,3.582 8,8 v 48 z"
     id="path17" />
  <path
     style="fill:#000000;fill-opacity:1;stroke-width:0.0109375"
     d="m 0.36242699,2324.7512 c 8.19e-4,-0.4106 0.003499,-0.7342 0.005956,-0.7191 0.002456,0.015 0.0268836,0.1971 0.0542825,0.4046 0.0273989,0.2076 0.0728817,0.5312 0.10107284,0.7192 l 0.0512567,0.3417 H 0.46796622 0.36093751 Z"
     id="path1775" />
  <circle
     id="path1946"
     style="fill:#000000;stroke:#000000;stroke-width:0.7"
     cx="0.546875"
     cy="2323.9829"
     r="0.025495313" />
  <circle
     id="path1948"
     style="fill:#000000;stroke:#000000;stroke-width:0.7"
     cx="0.546875"
     cy="2323.9829"
     r="0.025495313" />
  <circle
     id="path1962"
     style="fill:#000000;stroke:#000000;stroke-width:0.7"
     cx="-499.9245"
     cy="2217.0652"
     r="2.3075724" />
  <circle
     id="path1964"
     style="fill:#000000;stroke:#000000;stroke-width:0.7"
     cx="-499.9245"
     cy="2217.0652"
     r="2.3075724" />
  <path
     d="M 463.10011,1158 H 47.1001 C 21.4901,1158 0,1179.49 0,1206 v 352 c 0,26.51 21.49,48 47.1,48 h 416.00001 c 26.51,0 48,-21.49 48,-48 v -352 c 10e-5,-26.51 -20.5999,-48 -47.9999,-48 z m -352,376 c 0,4.418 -3.582,8 -8,8 H 55.1001 c -4.418,0 -8,-3.582 -8,-8 v -48 c 0,-4.418 3.582,-8 8,-8 h 47.10001 c 4.418,0 8,3.582 8,8 z m 0,-128 c 0,4.418 -3.582,8 -8,8 H 55.1001 c -4.418,0 -8,-3.582 -8,-8 v -48 c 0,-4.418 3.582,-8 8,-8 h 47.10001 c 4.418,0 8,3.582 8,8 v 48 z m 0,-128 c 0,4.418 -3.582,8 -8,8 H 55.1001 c -4.418,0 -8,-3.582 -8,-8 v -48 c 0,-4.418 3.582,-8 8,-8 h 47.10001 c 4.418,0 8,3.582 8,8 z m 240,248 c 0,8.836 -7.164,16 -16,16 h -160 c -8.836,0 -16,-7.164 -16,-16 v -96 c 0,-8.838 7.164,-16 16,-16 h 160 c 8.836,0 16,7.162 16,16 z m 0,-192 c 0,8.836 -7.164,16 -16,16 h -160 c -8.836,0 -16,-7.164 -16,-16 v -96 c 0,-8.838 7.164,-16 16,-16 h 160 c 8.836,0 16,7.162 16,16 z m 112,200 c 0,4.418 -3.582,8 -8,8 h -47.1 c -4.418,0 -7.1,-3.582 -7.1,-8 v -48 c 0,-4.418 3.582,-8 8,-8 h 47.1 c 4.418,0 8,3.582 8,8 v 48 z m 0,-128 c 0,4.418 -3.582,8 -8,8 h -47.1 c -4.418,0 -8,-3.582 -8,-8 v -48 c 0,-4.418 3.582,-8 8,-8 h 47.1 c 4.418,0 8,3.582 8,8 z m 0,-128 c 0,4.418 -3.582,8 -8,8 h -47.1 c -4.418,0 -8,-3.582 -8,-8 v -48 c 0,-4.418 3.582,-8 7.1,-8 h 47.1 c 4.418,0 8,3.582 8,8 v 48 z"
     id="path2087" />
  <path
     d="M 463.10011,772 H 47.1001 C 21.4901,772 0,793.49 0,820 v 352 c 0,26.51 21.49,48 47.1,48 h 416.00001 c 26.51,0 48,-21.49 48,-48 V 820 c 10e-5,-26.51 -20.5999,-48 -47.9999,-48 z m -352,376 c 0,4.418 -3.582,8 -8,8 H 55.1001 c -4.418,0 -8,-3.582 -8,-8 v -47.9999 c 0,-4.418 3.582,-8 8,-8 h 47.10001 c 4.418,0 8,3.582 8,8 z m 0,-128 c 0,4.418 -3.582,8 -8,8 H 55.1001 c -4.418,0 -8,-3.582 -8,-8 v -48 c 0,-4.418 3.582,-8 8,-8 h 47.10001 c 4.418,0 8,3.582 8,8 v 48 z m 0,-128 c 0,4.418 -3.582,8 -8,8 H 55.1001 c -4.418,0 -8,-3.582 -8,-8 v -48 c 0,-4.418 3.582,-8 8,-8 h 47.10001 c 4.418,0 8,3.582 8,8 z m 240,248 c 0,8.836 -7.164,16 -16,16 h -160 c -8.836,0 -16,-7.164 -16,-16 v -96 c 0,-8.838 7.164,-16 16,-16 h 160 c 8.836,0 16,7.162 16,16 z m 0,-192 c 0,8.836 -7.164,16 -16,16 h -160 c -8.836,0 -16,-7.164 -16,-16 v -96 c 0,-8.838 7.164,-16 16,-16 h 160 c 8.836,0 16,7.162 16,16 z m 112,200 c 0,4.418 -3.582,8 -8,8 h -47.1 c -4.418,0 -7.1,-3.582 -7.1,-8 v -47.9999 c 0,-4.418 3.582,-8 8,-8 h 47.1 c 4.418,0 8,3.582 8,8 V 1148 Z m 0,-128 c 0,4.418 -3.582,8 -8,8 h -47.1 c -4.418,0 -8,-3.582 -8,-8 v -48 c 0,-4.418 3.582,-8 8,-8 h 47.1 c 4.418,0 8,3.582 8,8 z m 0,-128 c 0,4.418 -3.582,8 -8,8 h -47.1 c -4.418,0 -8,-3.582 -8,-8 v -48 c 0,-4.418 3.582,-8 7.1,-8 h 47.1 c 4.418,0 8,3.582 8,8 v 48 z"
     id="path2089" />
  <path
     id="path2091"
     style="fill:#000000;fill-opacity:1;stroke-width:1.42857"
     d="M 67.285156 548.57227 C 30.699442 548.57227 0 579.27115 0 617.14258 L 0 1120 C 0 1157.8714 30.699442 1188.5723 67.285156 1188.5723 L 661.57227 1188.5723 C 699.44369 1188.5723 730.14258 1157.8714 730.14258 1120 L 730.14258 617.14258 C 730.14272 579.27115 700.71512 548.57227 661.57227 548.57227 L 67.285156 548.57227 z M 78.714844 640 L 146 640 C 152.31143 640 157.42969 645.11631 157.42969 651.42773 L 158.71484 720 C 158.71484 726.31143 153.59658 731.42773 147.28516 731.42773 L 78.714844 731.42773 C 72.403415 731.42773 67.285156 726.31143 67.285156 720 L 67.285156 651.42773 C 67.285156 645.11631 72.403415 640 78.714844 640 z M 250.14258 640 L 478.71484 640 C 491.3377 640 501.57227 650.23171 501.57227 662.85742 L 501.57227 800 C 501.57227 812.62286 491.3377 822.85742 478.71484 822.85742 L 250.14258 822.85742 C 237.51972 822.85742 227.28516 812.62286 227.28516 800 L 227.28516 662.85742 C 227.28516 650.23171 237.51972 640 250.14258 640 z M 581.57227 640 L 648.85742 640 C 655.16885 640 660.28516 645.11631 660.28516 651.42773 L 660.28516 720 L 661.57227 720 C 661.57227 726.31143 656.45401 731.42773 650.14258 731.42773 L 582.85742 731.42773 C 576.54599 731.42773 571.42969 726.31143 571.42969 720 L 571.42969 651.42773 C 571.42969 645.11631 576.54655 640 581.57227 640 z M 78.714844 822.85742 L 146 822.85742 C 152.31143 822.85742 157.42969 827.97373 157.42969 834.28516 L 157.42969 902.85742 L 158.71484 902.85742 C 158.71484 909.16885 153.59658 914.28516 147.28516 914.28516 L 78.714844 914.28516 C 72.403415 914.28516 67.285156 909.16885 67.285156 902.85742 L 67.285156 834.28516 C 67.285156 827.97373 72.403415 822.85742 78.714844 822.85742 z M 582.85742 822.85742 L 650.14258 822.85742 C 656.45401 822.85742 661.57227 827.97373 661.57227 834.28516 L 661.57227 902.85742 C 661.57227 909.16885 656.45401 914.28516 650.14258 914.28516 L 582.85742 914.28516 C 576.54599 914.28516 571.42969 909.16885 571.42969 902.85742 L 571.42969 834.28516 C 571.42969 827.97373 576.54599 822.85742 582.85742 822.85742 z M 250.14258 914.28516 L 478.71484 914.28516 C 491.3377 914.28516 501.57227 924.51686 501.57227 937.14258 L 501.57227 1074.2852 C 501.57227 1086.908 491.3377 1097.1426 478.71484 1097.1426 L 250.14258 1097.1426 C 237.51972 1097.1426 227.28516 1086.908 227.28516 1074.2852 L 227.28516 937.14258 C 227.28516 924.51686 237.51972 914.28516 250.14258 914.28516 z M 78.714844 1005.7148 L 146 1005.7148 C 152.31143 1005.7148 157.42969 1010.8311 157.42969 1017.1426 L 158.71484 1085.7148 C 158.71484 1092.0263 153.59658 1097.1426 147.28516 1097.1426 L 78.714844 1097.1426 C 72.403415 1097.1426 67.285156 1092.0263 67.285156 1085.7148 L 67.285156 1017.1426 C 67.285156 1010.8311 72.403415 1005.7148 78.714844 1005.7148 z M 584.14258 1005.7148 L 651.42969 1005.7148 C 657.74112 1005.7148 662.85742 1010.8311 662.85742 1017.1426 L 662.85742 1085.7148 L 661.57227 1085.7148 C 661.57227 1092.0263 656.45401 1097.1426 650.14258 1097.1426 L 582.85742 1097.1426 C 576.54599 1097.1426 572.71484 1092.0263 572.71484 1085.7148 L 572.71484 1017.1426 C 572.71484 1010.8311 577.83115 1005.7148 584.14258 1005.7148 z "
     transform="scale(0.70000001)" />
  <path
     d="M 463.10011,0 H 47.1001 C 21.4901,0 0,21.49 0,48 v 352 c 0,26.51 21.49,48 47.1,48 h 416.00001 c 26.51,0 48,-21.49 48,-48 V 48 c 10e-5,-26.51 -20.5999,-48 -47.9999,-48 z m -352,376 c 0,4.418 -3.582,8 -8,8 H 55.1001 c -4.418,0 -8,-3.582 -8,-8 v -47.9999 c 0,-4.418 3.582,-8 8,-8 h 47.10001 c 4.418,0 8,3.582 8,8 z m 0,-128 c 0,4.418 -3.582,8 -8,8 H 55.1001 c -4.418,0 -8,-3.582 -8,-8 v -48 c 0,-4.418 3.582,-8 8,-8 h 47.10001 c 4.418,0 8,3.582 8,8 v 48 z m 0,-128 c 0,4.418 -3.582,8 -8,8 H 55.1001 c -4.418,0 -8,-3.582 -8,-8 V 72 c 0,-4.418 3.582,-8 8,-8 h 47.10001 c 4.418,0 8,3.582 8,8 z m 240,248 c 0,8.836 -7.164,16 -16,16 h -160 c -8.836,0 -16,-7.164 -16,-16 v -96 c 0,-8.838 7.164,-16 16,-16 h 160 c 8.836,0 16,7.162 16,16 z m 0,-192 c 0,8.836 -7.164,16 -16,16 h -160 c -8.836,0 -16,-7.164 -16,-16 V 80 c 0,-8.838 7.164,-16 16,-16 h 160 c 8.836,0 16,7.162 16,16 z m 112,200 c 0,4.418 -3.582,8 -8,8 h -47.1 c -4.418,0 -7.1,-3.582 -7.1,-8 v -47.9999 c 0,-4.418 3.582,-8 8,-8 h 47.1 c 4.418,0 8,3.582 8,8 V 376 Z m 0,-128 c 0,4.418 -3.582,8 -8,8 h -47.1 c -4.418,0 -8,-3.582 -8,-8 v -48 c 0,-4.418 3.582,-8 8,-8 h 47.1 c 4.418,0 8,3.582 8,8 z m 0,-128 c 0,4.418 -3.582,8 -8,8 h -47.1 c -4.418,0 -8,-3.582 -8,-8 V 72 c 0,-4.418 3.582,-8 7.1,-8 h 47.1 c 4.418,0 8,3.582 8,8 v 48 z"
     id="path2093" />
  <path
     id="path2101"
     style="fill:#000000;fill-opacity:1;stroke-width:1"
     d="M 702.72656 1653.8398 C 700.01989 1669.1458 697.48336 1684.4875 694.73242 1699.7891 C 693.10845 1710.8961 690.87811 1721.9193 690.29883 1733.1484 C 690.21723 1736.1344 690.26838 1739.1199 690.33398 1742.1055 L 730.17578 1741.9434 L 730.17578 1654.3828 L 702.72656 1653.8398 z "
     transform="scale(0.70000001)" />
  <path
     id="path2103"
     style="fill:#000000;fill-opacity:1;stroke-width:1"
     d="M 665.65625 1116.7383 C 661.47485 1128.6464 659.07574 1140.9734 657.95898 1153.5176 C 657.76294 1160.8436 656.98241 1168.3199 658.81641 1175.4883 C 660.21236 1179.3312 662.32419 1182.8143 664.6582 1186.1445 C 702.07621 1186.6277 720.80498 1194.1569 730.26367 1190.7754 L 730.26367 1119.0566 L 665.65625 1116.7383 z M 665.56641 1177.6562 C 666.1315 1177.6596 666.69662 1177.6682 667.26172 1177.6719 C 667.08687 1177.8651 666.88635 1178.0288 666.64844 1178.1113 C 666.27879 1178.2396 665.17516 1177.6539 665.56641 1177.6562 z "
     transform="scale(0.70000001)" />
  <rect
     style="fill:#000000;fill-opacity:1;stroke-width:1.05547"
     id="rect3469"
     width="34.747108"
     height="3043.3074"
     x="476.43808"
     y="39.642803"
     ry="0" />
  <rect
     style="fill:#000000;fill-opacity:1;stroke-width:1.05547"
     id="rect3469-1"
     width="34.747108"
     height="3043.3074"
     x="0"
     y="53.326889"
     ry="0" />
</svg>
